<?xml version="1.0" encoding="utf-8"?>
<!-- Generator: Adobe Illustrator 24.3.0, SVG Export Plug-In . SVG Version: 6.00 Build 0)  -->
<svg version="1.1" id="Layer_1" xmlns="http://www.w3.org/2000/svg" xmlns:xlink="http://www.w3.org/1999/xlink" x="0px" y="0px"
	 viewBox="0 0 587.77 445.05" style="enable-background:new 0 0 587.77 445.05;" xml:space="preserve">
<style type="text/css">
	.st0{stroke:#000000;stroke-width:0.9199;stroke-miterlimit:10;}
	.st1{fill:none;stroke:#000000;stroke-width:3.6795;stroke-miterlimit:10;}
	.st2{fill:none;stroke:#000000;stroke-width:4.7323;stroke-miterlimit:10;}
</style>
<g>
	<path d="M5.26,400.18c0-4,0.77-7.77,2.31-11.31c1.54-3.54,3.62-6.62,6.23-9.23c2.62-2.62,5.71-4.69,9.28-6.23
		c3.57-1.54,7.39-2.31,11.45-2.31c2.95,0,5.79,0.42,8.49,1.25c2.71,0.83,5.2,2.02,7.48,3.55c2.28,1.54,4.32,3.36,6.14,5.45
		c1.81,2.09,3.31,4.37,4.48,6.83l-5.17,3.32c-0.92-2.03-2.11-3.91-3.55-5.63c-1.45-1.72-3.09-3.23-4.94-4.52
		c-1.85-1.29-3.86-2.29-6.05-3c-2.19-0.71-4.45-1.06-6.79-1.06c-3.14,0-6.13,0.63-8.96,1.89c-2.83,1.26-5.29,2.94-7.39,5.03
		c-2.09,2.09-3.76,4.54-4.99,7.34c-1.23,2.8-1.85,5.71-1.85,8.72c0,3.08,0.61,5.99,1.85,8.73c1.23,2.74,2.89,5.16,4.99,7.25
		c2.09,2.09,4.54,3.75,7.34,4.99c2.8,1.23,5.77,1.85,8.91,1.85c2.15,0,4.25-0.29,6.28-0.88c2.03-0.58,3.92-1.4,5.68-2.45
		c1.75-1.05,3.35-2.29,4.8-3.74c1.45-1.45,2.66-3.06,3.65-4.85l4.43,4.52c-2.58,4.06-6.02,7.34-10.29,9.83
		c-4.28,2.49-9.13,3.74-14.54,3.74c-4.06,0-7.88-0.77-11.45-2.31c-3.57-1.54-6.66-3.62-9.28-6.23c-2.62-2.62-4.69-5.69-6.23-9.23
		C6.03,407.95,5.26,404.18,5.26,400.18z M59.09,398.88v5.82H31.48v-5.82H59.09z"/>
	<path d="M99.99,398.88h8.86c1.48,0,2.74-0.34,3.79-1.02c1.05-0.68,1.92-1.54,2.63-2.58c0.71-1.05,1.21-2.18,1.52-3.42
		c0.31-1.23,0.46-2.4,0.46-3.51c0-1.23-0.2-2.51-0.6-3.83c-0.4-1.32-0.97-2.52-1.71-3.6c-0.74-1.08-1.65-1.97-2.72-2.68
		c-1.08-0.71-2.29-1.06-3.65-1.06H79.77v51.8h-6.46v-57.61h36.47c1.91,0,3.72,0.45,5.45,1.34c1.72,0.89,3.23,2.09,4.52,3.6
		c1.29,1.51,2.32,3.31,3.09,5.4c0.77,2.09,1.15,4.34,1.15,6.74c0,2.16-0.37,4.2-1.11,6.14c-0.74,1.94-1.74,3.66-3,5.17
		c-1.26,1.51-2.74,2.71-4.43,3.6c-1.69,0.89-3.49,1.34-5.4,1.34l12.28,24.28h-6.92L99.99,398.88z"/>
	<path d="M136.19,428.98v-57.61h43.86v5.82h-37.39v45.98h37.39v5.82H136.19z M179.3,398.88v5.82H151.7v-5.82H179.3z"/>
	<path d="M191.77,400.18c0-4,0.77-7.77,2.31-11.31c1.54-3.54,3.62-6.62,6.23-9.23c2.62-2.62,5.71-4.69,9.28-6.23
		c3.57-1.54,7.39-2.31,11.45-2.31c2.95,0,5.79,0.42,8.49,1.25c2.71,0.83,5.2,2.02,7.48,3.55c2.28,1.54,4.32,3.36,6.14,5.45
		c1.81,2.09,3.31,4.37,4.48,6.83l-5.17,3.32c-0.92-2.03-2.11-3.91-3.55-5.63c-1.45-1.72-3.09-3.23-4.94-4.52
		c-1.85-1.29-3.86-2.29-6.05-3c-2.19-0.71-4.45-1.06-6.79-1.06c-3.14,0-6.13,0.63-8.96,1.89c-2.83,1.26-5.29,2.94-7.39,5.03
		c-2.09,2.09-3.76,4.54-4.99,7.34c-1.23,2.8-1.85,5.71-1.85,8.72c0,3.08,0.61,5.99,1.85,8.73c1.23,2.74,2.89,5.16,4.99,7.25
		c2.09,2.09,4.54,3.75,7.34,4.99c2.8,1.23,5.77,1.85,8.91,1.85c2.15,0,4.25-0.29,6.28-0.88c2.03-0.58,3.92-1.4,5.68-2.45
		c1.75-1.05,3.35-2.29,4.8-3.74c1.45-1.45,2.66-3.06,3.65-4.85l4.43,4.52c-2.58,4.06-6.02,7.34-10.29,9.83
		c-4.28,2.49-9.13,3.74-14.54,3.74c-4.06,0-7.88-0.77-11.45-2.31c-3.57-1.54-6.66-3.62-9.28-6.23c-2.62-2.62-4.69-5.69-6.23-9.23
		C192.54,407.95,191.77,404.18,191.77,400.18z M245.6,398.88v5.82h-27.61v-5.82H245.6z"/>
	<path d="M350.57,428.98h-7.2l-23.27-46.81l-20.04,41h27.15l3.97,5.82h-41.27l30.19-60.66L350.57,428.98z"/>
	<path d="M373.75,432.03l-30.19-60.66h7.39l22.8,46.81l23.08-46.81h7.39L373.75,432.03z"/>
	<path d="M414.56,428.98v-57.61h43.86v5.82h-37.39v45.98h37.39v5.82H414.56z M457.68,398.88v5.82h-27.61v-5.82H457.68z"/>
	<path d="M498.02,398.88h8.86c1.48,0,2.74-0.34,3.79-1.02c1.05-0.68,1.92-1.54,2.63-2.58c0.71-1.05,1.21-2.18,1.52-3.42
		c0.31-1.23,0.46-2.4,0.46-3.51c0-1.23-0.2-2.51-0.6-3.83c-0.4-1.32-0.97-2.52-1.71-3.6c-0.74-1.08-1.65-1.97-2.72-2.68
		c-1.08-0.71-2.29-1.06-3.65-1.06H477.8v51.8h-6.46v-57.61h36.47c1.91,0,3.72,0.45,5.45,1.34c1.72,0.89,3.23,2.09,4.52,3.6
		c1.29,1.51,2.32,3.31,3.09,5.4c0.77,2.09,1.15,4.34,1.15,6.74c0,2.16-0.37,4.2-1.11,6.14c-0.74,1.94-1.74,3.66-3,5.17
		c-1.26,1.51-2.74,2.71-4.43,3.6c-1.69,0.89-3.49,1.34-5.4,1.34l12.28,24.28h-6.93L498.02,398.88z"/>
	<path d="M552.41,408.67l-24.93-37.3h7.76l20.22,29.64l20.68-29.64h7.75l-25.02,36.84v20.77h-6.46V408.67z"/>
</g>
<g>
	<g>
		<g>
			<polygon class="st0" points="348.19,254.67 348.19,259.92 230.71,200.52 230.71,195.93 			"/>
			<polygon class="st0" points="230.11,69.7 234.87,71.94 234.87,202.62 230.71,200.1 			"/>
			<polygon class="st0" points="230.36,196.49 230.71,200.49 333.92,155.35 333.63,151.96 			"/>
			<polygon class="st0" points="232.54,58.57 238.32,73.54 226.66,68.08 			"/>
			<polygon class="st0" points="342.23,149.81 331.47,161.71 331.1,148.85 			"/>
			<polygon class="st0" points="348.19,251.23 361.1,262.4 348.3,262.4 			"/>
		</g>
		<polygon class="st1" points="293.88,18.82 417.58,80.67 406.91,86 417.58,91.34 417.58,107.34 428.25,102.01 428.25,239.61 
			304.55,302.15 304.55,286.09 293.88,291.48 283.22,286.09 283.22,302.15 159.52,239.61 159.52,102.01 170.19,107.34 170.19,91.34 
			180.85,86 170.19,80.67 		"/>
		<polygon class="st2" points="443.3,248.17 293.88,323.72 144.47,248.17 144.47,79.07 293.88,2.65 443.3,77.36 		"/>
	</g>
</g>
<g>
</g>
<g>
</g>
<g>
</g>
<g>
</g>
<g>
</g>
<g>
</g>
<g>
</g>
<g>
</g>
<g>
</g>
<g>
</g>
<g>
</g>
<g>
</g>
<g>
</g>
<g>
</g>
<g>
</g>
</svg>
